<svg 
 xmlns="http://www.w3.org/2000/svg"
 xmlns:xlink="http://www.w3.org/1999/xlink"
 width="827px" height="825px">
  <path fill-rule="evenodd"  opacity="0.7"
  d="M527.000,825.000 C361.315,825.000 227.000,690.685 227.000,525.000 L227.000,388.000 L227.000,375.000 L227.000,338.000 C227.000,296.579 260.579,263.000 302.000,263.000 C343.421,263.000 377.000,296.579 377.000,338.000 L377.000,375.000 L377.000,388.000 L377.000,526.000 C377.000,608.843 444.157,676.000 527.000,676.000 C609.843,676.000 677.000,608.843 677.000,526.000 L677.000,375.000 L677.000,75.000 C677.000,33.579 710.579,-0.000 752.000,-0.000 C793.421,-0.000 827.000,33.579 827.000,75.000 L827.000,375.000 L827.000,525.000 C827.000,690.685 692.685,825.000 527.000,825.000 Z"/>
  <path fill-rule="evenodd"
  d="M525.000,575.000 C483.579,575.000 450.000,541.421 450.000,500.000 L450.000,450.000 L450.000,299.000 C450.000,216.157 382.843,149.000 300.000,149.000 C217.157,149.000 150.000,216.157 150.000,299.000 L150.000,437.000 L150.000,450.000 L150.000,737.000 C150.000,778.421 116.421,812.000 75.000,812.000 C33.579,812.000 -0.000,778.421 -0.000,737.000 L-0.000,450.000 L-0.000,437.000 L-0.000,300.000 C-0.000,134.315 134.315,0.000 300.000,0.000 C465.685,0.000 600.000,134.315 600.000,300.000 L600.000,450.000 L600.000,500.000 C600.000,541.421 566.421,575.000 525.000,575.000 Z"/>
</svg>